<svg xmlns="http://www.w3.org/2000/svg" xmlns:xlink="http://www.w3.org/1999/xlink" id="_x3C_Layer_x3E_" x="0px" y="0px" viewBox="0 0 2883.8 1369.2" style="enable-background:new 0 0 2883.8 1369.2;" xml:space="preserve"><style type="text/css">	.st0{fill:#2E3552;}	.st1{fill:#EA8E50;}	.st2{fill:#1E3D70;}	.st3{fill:#233862;}	.st4{fill:#486C98;}	.st5{fill:#AFCDFB;}	.st6{fill:#3C597E;}	.st7{fill:#FFB07B;}	.st8{fill:#2A4E96;}	.st9{fill:#163560;}	.st10{fill:#599DAD;}	.st11{fill:#6BB7BF;}	.st12{fill:#E49963;}	.st13{fill:#D68D5D;}	.st14{fill:#4A75CB;}	.st15{fill:#5E441F;}	.st16{fill:#4D52E6;}	.st17{fill:#D6D6D6;}	.st18{fill:#C65447;}	.st19{fill:#AA413E;}	.st20{fill:#699DEE;}	.st21{fill:#FFFFFF;}	.st22{fill:#1C468A;}	.st23{fill:#ABABAB;}	.st24{fill:#969696;}	.st25{fill:#E8C6A7;}	.st26{fill:#C69D7B;}	.st27{fill:#FFB27D;}	.st28{fill:#2C3A64;}	.st29{fill:#35488B;}	.st30{fill:#ED975D;}	.st31{fill:#2B478B;}</style><g>	<path class="st0" d="M2864.6,1350.6H19.2c-1.9,0-3.5-1.6-3.5-3.5v-0.9c0-1.9,1.6-3.5,3.5-3.5h2845.4c1.9,0,3.5,1.6,3.5,3.5v0.9  C2868.1,1349,2866.5,1350.6,2864.6,1350.6z"></path>	<g>		<g>			<path class="st1" d="M446.3,824.9l9.5,7.7c0,0,26-9.3,31.8,21.6c0,0,1.6,13.2-6.8,13.2c-8.3,0-4.9-1.4-16.7-1.1    c-11.8,0.3-21.6-5.9-23.3-15.5l-5.6-8.1L446.3,824.9z"></path>			<path class="st2" d="M445.2,841.5c7.6-7.9,7-13.8,7-13.8s-87.7-71.8-96.6-77.7c-6.1-4-70.7-61.3-100.9-96.2    c-15-17.3-33.5-10.6-54.8-4.5l-17.5,5c-21.1,6.1-26.6,35.6-9.3,49.9c48.8,40.4,129.9,85.9,145.1,95.4    c37.7,23.7,111.5,51.9,111.5,51.9S438.7,848.3,445.2,841.5z"></path>		</g>		<path class="st3" d="M545.3,1282.8c0,0,21.3,16,53.9,7.5c0,0,26.3-6,32.1,7.1c0,0-40.3,20.5-50.5,26.1c-7.7,4.2-15.7,10.9-21.4,16   c-4.5,4.1-11.5,3.5-15.3-1.2c-1.8-2.2-3.8-4.8-6-7.8c-6.2-8.4-20.7-35.7-20.7-35.7L545.3,1282.8z"></path>		<path class="st4" d="M557.8,1274.6c0,0-13,29.9-42.9,24.4c0,0-61.1-50.4-102.9-102.8c-13.6-17-25.2-34.2-32-50   c-27.8-64.3-102.7-160.2-150.4-208.8l119.3-43.1c0,0,38.2,76.8,89,171.2C474.5,1133.5,517.7,1210.6,557.8,1274.6z"></path>		<g>			<path class="st5" d="M564.8,707.1c0.8-7.4,1-14.7,0.7-21.9c-0.2-3.3,1.7-6.4,4.7-7.8l35.2-16.3c3.8-1.8,5.6-6.1,4.2-10    l-12.2-33.4c-1.4-3.8-5.3-5.9-9.2-4.9l-34.7,8.5c-3.4,0.8-6.9-0.6-8.8-3.6c-7.9-12.9-17.9-24.6-29.5-34.4c-2.8-2.4-3.6-6.4-2-9.8    l9.6-19.5c1.8-3.7,0.6-8.2-2.9-10.5l-29.8-18.9c-3.5-2.2-8.2-1.4-10.7,1.9l-20.9,27.5c-6.4-1.6-13-2.8-19.8-3.6    c-9.1-1-18-1.1-26.8-0.4c-3.3,0.3-6.5-1.5-7.9-4.6l-13.2-28.4c-1.8-3.9-6.3-5.7-10.3-4.3l-32.8,11.9c-4,1.5-6.3,5.7-5.2,9.8    l7.1,29c0.8,3.3-0.5,6.8-3.4,8.7c-9.3,6-17.9,13.1-25.5,21c-2.5,2.6-6.3,3.2-9.5,1.7l-31.7-15.6c-3.7-1.8-8.3-0.6-10.5,3    l-18.8,29.7c-2.3,3.6-1.4,8.3,2,10.9l30.9,23.5c2.6,2,3.7,5.3,2.9,8.5c-1.9,7-3.2,14.2-4.1,21.7c-0.4,3.9-0.7,7.9-0.8,11.8    c-0.1,3.2-1.9,6.1-4.8,7.4l-33.8,15.7c-3.8,1.7-5.6,6.1-4.1,10l12,33c1.5,4,5.7,6.3,9.8,5.3l27.5-6.8c3.7-0.9,7.5,0.8,9.2,4.1    c6.8,13.2,15.6,25.2,26.1,35.6c2.5,2.5,3.2,6.3,1.6,9.5l-14,28.6c-1.9,3.8-0.6,8.5,3,10.8l29.6,18.8c3.5,2.2,8.2,1.4,10.8-1.9    l20.5-26.9c2.1-2.7,5.7-3.9,9-2.9c7.9,2.3,16.2,4,24.7,4.9c4.6,0.5,9.1,0.8,13.6,0.8c3.1,0,6,1.9,7.3,4.7l13.4,28.8    c1.8,3.9,6.3,5.8,10.4,4.3l32.9-12c3.9-1.4,6.1-5.6,5.2-9.6l-5.7-23.2c-0.9-3.7,0.8-7.4,4.1-9.2c16.8-8.8,31.7-20.9,43.9-35.5    c2.4-2.9,6.4-3.7,9.8-2.1l25.7,12.6c3.7,1.8,8.2,0.6,10.5-3l18.8-29.6c2.3-3.6,1.4-8.4-2-11L566,726.9c-2.5-1.9-3.6-5-3-8    C563.7,715,564.3,711.1,564.8,707.1z M453.4,763.2c-74,26.4-135.4-50.4-92.9-117c6.4-10,20.8-21.5,31.9-25.6    c74.1-27.3,136,49.3,94.3,115.8C480,747,465.1,759,453.4,763.2z"></path>		</g>		<path class="st6" d="M437.9,1065.5L412,1196.2c-13.6-17-25.2-34.2-32-50c-27.8-64.3-102.7-160.2-150.4-208.8l119.3-43.1   C348.8,894.3,387,971.1,437.9,1065.5z"></path>		<path class="st3" d="M340.4,1300.1c0,0-1.3,23.9,27.6,27c0,0,17.4,0.4,17.5,15.5h-85c0,0-2.4-6.1-3-19.2   c-0.5-10.1,9.8-36.4,9.8-36.4L340.4,1300.1z"></path>		<path class="st4" d="M309.7,894.3c0,0,53.1,58.4,86.9,163.5c18.3,57.2-33.6,201.1-43.8,251.1c0,0-34.9,3-58.7-6.3   c0,0-1.8-103.2,12.1-182.8c7.8-44.5-69.9-95.2-103.9-175.7c-23.1-54.7,5-53.8,39.6-55.1L309.7,894.3z"></path>		<path class="st7" d="M248.4,633.8c-29.6,16.7-90.1,1.3-90.1,1.3s24.6-28.1,13.4-73.3l23.2,11.8l24.9,12.7c0,0,1.6,8,2.7,22.3   c0.3,3.7,0.5,7.8,0.7,12.3C238.5,625.5,248.4,633.8,248.4,633.8z"></path>		<path class="st8" d="M356.8,891.2c0,5.2-6,7.7-7.3,7.9c-11.9,2.2-45.2,15.1-75.2,18.1c-25.3,2.6-48.7,0.1-74.4-5   c-3.4-0.7-11.4-2.8-12-6.1c-0.7-3.6-99.3-201.1-22.7-285.9c1.8-2,16.9,1.6,30.8,4.9c12.8,3,24.5,1.3,35-2.9l13,6.8   c15.9,8.9,46.1,40.4,49.6,65.2c1.8,12.6,9,21.9,11.1,33c0.8,4.1,1.6,8.1,2.4,12c1.6,7.7,3.2,14.9,4.9,21.9   c4.5,18.7,9.3,34.9,13.9,48.8c5,14.8,9.9,27.1,14.2,37.4c5.7,13.3,10.4,23.3,13.4,31C355.6,883.6,356.8,887.8,356.8,891.2z"></path>		<path class="st2" d="M353.5,878.2C214.2,812.6,166,686.7,166,686.7s113.1,41.7,141,52.6c1.6,7.7,3.2,14.9,4.9,21.9   c4.5,18.7,9.3,34.9,13.9,48.8c5,14.8,9.9,27.1,14.2,37.4C345.7,860.6,350.5,870.6,353.5,878.2z"></path>		<g>			<path class="st7" d="M434.9,840.2l12,4.4c0,0,24.1-17,39.1,10.7c0,0,5.4,12.1-3.2,14.7c-8.6,2.6-5.5,0.2-17.5,4.2    c-12.1,4-24,1.1-28.5-7.5l-8.2-6L434.9,840.2z"></path>			<path class="st8" d="M444.8,857.2c4.4-11.6,6.5-16.9,6.5-16.9s-90.9-74.1-100.2-80.5c-6.3-4.3-69.2-51.3-99.8-87.9    c-15.2-18.2-39.2-26.5-62.3-21.6l-19.1,4c-23,4.8-30.5,34-12.7,49.3c50.3,43.2,135.3,93.2,151.1,103.6    c39.3,25.8,126.2,62.1,126.2,62.1S441.3,866.3,444.8,857.2z"></path>		</g>		<path class="st1" d="M222.6,608.6c-29.1,1.6-48-22.4-48-22.4s13.1-7.3,20.3-12.6l24.9,12.7C219.9,586.2,221.5,594.2,222.6,608.6z"></path>		<path class="st7" d="M235,578.7c0,0-44,31.6-63.3,3.9c-19.3-27.7-37.9-42.3-10.6-63.7c27.3-21.4,40.2-14.6,48.9-6.9   C218.6,519.7,246,569.8,235,578.7z"></path>		<path class="st3" d="M214.6,487c-1.6-10.7-5.1-18.2-5.1-18.2s-2.8,11.4-23.7,9.9c-20.9-1.6-54.1,2.1-65.1,25.9   c-0.7,1.5-1.3,3.1-1.9,4.7c-2-5.3-2.5-13.2-2.5-13.2c-4,10.3,0,23.1,0,23.1h0c-0.1,0.4-0.1,0.7-0.2,1.1c-4.6,3.9-8.5,16-8.5,16   c1.4-3.4,4.8-5.6,7.8-7c-0.1,18.6,7.4,36.7,20.6,42.1c19.3,7.9,19.2,1.9,38.6,14.8c0,0,5.2-6.5,1.7-10.8c-3.6-4.3-17-10.7-9.5-17   c7.5-6.3,10.3,0.8,13-3.6c2.8-4.3-11.1-17,6.7-28.8C204.3,514.2,216.2,497.6,214.6,487z"></path>	</g>	<g>		<path class="st9" d="M2267.7,1303.8c0,0,2.4,38.3,9.8,38.8c1,0.1,37.5,0.1,37.5,0.1h46.7c0,0-0.4-11.5-14-13.9   c-13.6-2.4-36.5-12-44.7-30C2294.3,1279.8,2267.7,1303.8,2267.7,1303.8z"></path>		<path class="st10" d="M2082.8,989.3c6.7,12.6,14.4,24.4,22.3,35.6c24.6,34.6,51.3,63.1,55.9,90c0.9,5.4,2.4,11.2,4.3,17.2   c1.9,6.2,4.3,12.7,7.1,19.4c10.4,25.2,26,53.5,41.6,79.2c26.9,44.4,52.2,81.5,52.2,81.5l46.4-2.2c-1.9-5.2-22.1-66.5-49.1-141.5   c-11-30.4-22.7-62.8-33.9-94c-1.5-4.2-3-8.3-4.5-12.4c-3.4-9.6-6.8-19-10.1-28.1c-25.4-70.4-45.6-126.5-45.6-126.5   s-101.5-42.9-112.1-15.1C2048.4,915.3,2055.5,937.7,2082.8,989.3z"></path>		<path class="st3" d="M2168.1,1262.3c0,0-17,15.7-13.7,26.9c3.3,11.2,18.6,18.6,20.7,32.3c2.1,13.7,10.4,21.1,17.8,21.1   s35.5,0,35.5,0s5.5-9.6-7.8-12.5c-13.3-2.9-18.3-19-17.4-33.9c0.8-14.9-1.2-34.8-1.2-34.8l-28.2-6.6L2168.1,1262.3z"></path>		<path class="st11" d="M2183.1,902.2c0,0,106.8,173.3,106.8,187.1c0,30.5-80.7,206.1-80.7,206.1s-42.9-22.6-41.1-38.5   c0,0,25.7-123.3,33.2-143.1c7.5-19.8-135-94.5-142.5-184.7L2183.1,902.2z"></path>		<path class="st12" d="M2235.5,813c0,0,22,12.5,28.2,12.5c6.2,0,30.4-4.7,37.1-1.2c6.7,3.4,19,17.3,21.3,21.9   c4.1,8.2-16.6,4.6-26.4-2.4c-1.4-1-3.2-1.4-4.9-1c-5.1,1.1-15.6,3-20.7,1.1c-6.8-2.5-42.9-5.3-42.9-5.3L2235.5,813z"></path>		<path class="st6" d="M2067.8,642.4c0,0,22.8,162.4,60.7,176.9c18.7,7.2,101.1,23.4,125.5,25.1c0,0,6-4.8,4.5-24.6   c0,0-86.4-31.7-98.7-49c-18.3-25.7,11.3-104.9-11.6-129C2125.4,617.6,2086.8,607.3,2067.8,642.4z"></path>		<path class="st12" d="M2157.1,632.1c-30.5,7.9-81.2-20.4-81.2-20.4s19.7-13.2,26.9-42.2c0.4-1.5,0.7-3,1-4.5   c3.2-0.7,9.2-2,15.7-3.3l23.3,20.9c0,0-0.5,8.7-3.5,23.6c-0.5,2.6-1.1,5.4-1.8,8.4C2150.2,622.3,2157.1,632.1,2157.1,632.1z"></path>		<path class="st4" d="M2043.7,758.7c4.4,58.8-1.4,148.3,3.6,163.8c4.3,13.4,53.1,5.4,72.5,1c7.2-1.7,15.9-4,25-6.8   c25.2-7.8,52.6-18.9,55.5-27.2c0.1-0.3,0.2-0.6,0.3-1c0.3-1.2,0.2-2.3-0.1-3.5c-1-4.2-4.8-8.8-5.2-19.2   c-0.5-11.6-0.4-25.3-0.9-40.1c0-1.7,0-3.5-0.2-5.1l0-0.6c0-0.3,0-0.6,0-0.9c-0.4-16.4-1.3-33.7-2.3-50.8   c-0.6-10.8-1.4-21.4-2.2-31.6c-2.2-26.4-5.1-49.8-9.1-64.6c-6.4-24.1-20.5-39.9-33.3-51.4l-9.3-8c-10.4,2.3-22.6,0.8-33.7-4.5   c-12-5.7-16.1-9.8-18.2-8.2C2058.4,621.4,2038.5,686.8,2043.7,758.7z"></path>		<path class="st6" d="M2144.7,916.6c25.2-7.8,52.6-18.9,55.5-27.2c0.1-0.3,0.2-0.6,0.3-1c0-1.2,0-2.3-0.1-3.5   c-1-4.2-4.8-8.8-5.2-19.2c-0.5-11.6-0.4-25.3-0.9-40.1c0-1.7,0-3.5-0.2-5.1l0-0.6c0-0.3,0-0.6,0-0.9l-101.7-129.5   C2092.5,689.6,2024.1,832,2144.7,916.6z"></path>		<path class="st13" d="M2142.9,582.6c0,0-0.5,8.7-3.5,23.6c-22.8-7.4-33.1-27.9-36.6-36.7c0.4-1.5,0.7-3,1-4.5   c3.2-0.7,9.2-2,15.7-3.3L2142.9,582.6z"></path>		<path class="st12" d="M2146,595.7c0,0-49.7-8.3-44-39.1c5.6-30.8,3-52.7,35-48.7c31.9,4,35.9,16.9,36.6,27.6   C2174.1,546.3,2159.1,597.1,2146,595.7z"></path>		<g>							<rect x="2360" y="742.8" transform="matrix(-0.951 -0.3092 0.3092 -0.951 4360.5483 2297.2251)" class="st14" width="4.6" height="120.6"></rect>							<rect x="2219.4" y="852.2" transform="matrix(-0.9998 -2.134937e-02 2.134937e-02 -0.9998 4546.5933 1760.5203)" class="st14" width="126.5" height="7.6"></rect>		</g>		<path class="st12" d="M2221.9,864.5c0,0,40.6,10.7,55.9,9.6c15.2-1.1,27.9-8.4,29.8-12.2c1.9-3.8,5.9-10.5-4.4-9.3   c-10.4,1.2-24.5,3.4-25,1.5c-0.4-2,8.5-1.8,8.5-1.8s2.7-3.9-0.7-4.1c-3.4-0.1-13.3-2.8-16.9-1c-3.7,1.8-7.1,8.6-9.7,8.3   c-2.7-0.3-34-14.1-34-14.1L2221.9,864.5z"></path>		<path class="st4" d="M2077.9,649c0,0,4.8,163.9,40.8,182.5c17.8,9.2,97.9,34.4,122,38.8c0,0,6.5-4.2,7.2-23.9   c0,0-82.4-41.1-92.7-59.6c-15.3-27.5,22.8-103,2.7-129.5C2137.8,630.8,2100.6,616.2,2077.9,649z"></path>		<path class="st15" d="M2102.9,569.5c0,0-0.6-10.6,6-16.6c0,0-2.3-10.6,1.9-12.4c4.2-1.7,5.1,7.2,7,5.8c1.9-1.4,10.5-8,14.2-17.8   c3.7-9.8,37.3,2.1,41.2,3.8s16.5-4.7,19-10c0,0-7-5.6-10.1-9.8c-3.1-4.2-25.2-32.5-56-24.5c-30.8,8-35,22.7-33.2,35.3   C2094.5,536,2090.3,565.3,2102.9,569.5z"></path>	</g>	<g>		<path class="st5" d="M2053.8,925.1l-96.2-58c-8-4.9-12.5-13.9-11.8-23.2c1-11.9,1.5-23.9,1.5-36c0-22.6-1.6-44.6-5-66.1   c-1.6-10.1,2.9-20,11.6-25.1l100.5-60.7c10.8-6.4,14.8-20.1,9.2-31.5l-47.3-96.3c-5.4-10.9-18-15.9-29.4-11.9l-101.6,36.9   c-9.8,3.8-21,0.5-27.6-8.1c-27.9-36.2-61.7-67.8-99.8-93.6c-9.2-6.3-13-18.3-9.2-28.7l22.6-61.8c4.2-11.8-1-25-12.3-30.6   l-95.7-46.8c-2-1-3.9-1.7-6-2.1c-9.8-2.1-20.2,2.3-25.5,11.3l-43.4,71.8l-10.5,17.5c-19.7-2.8-40.1-4.3-60.5-4.3   c-27.6,0-54.7,2.6-80.7,7.5c-9.9,1.8-20-2.5-25.1-11.2l-48.8-81c-6.7-11-20.7-15.2-32.2-9.4l-73.7,36.2l-21.1,10.4   c-11.5,5.6-17,19.1-12.6,31.1l30.8,84.9c3.7,9.8,0.7,20.8-7.4,27.2c-23.9,19.5-45.7,41.4-64.8,65.5c-1.8,2-3.3,3.9-4.9,6   c-0.5,0.7-1.1,1.3-1.7,2c-6.7,7.2-17.2,9.6-26.5,6.1l-100.4-36.4c-1.1-0.5-2.3-0.7-3.4-1c-10.8-2.2-22.1,3.2-27.1,13.2l-46.8,95.4   c-5.6,11.5-1.6,25.4,9.4,32.1l100.4,60.4c8.6,5,13,14.8,11.4,24.6c-3.3,21.6-5,43.8-5,66.4c0,12,0.5,23.9,1.5,35.7   c0.7,9.6-3.9,18.8-12.1,23.7l-96.6,58.3c-10.7,6.4-14.7,20-9.2,31.3l46.9,95.2c5.6,11.5,19,17,31.3,12.6l80.4-29.2   c10.8-3.9,22.7,0,29,9.4c24.6,37.4,55,70.6,89.8,98.7c8.3,6.5,11.5,17.8,7.8,27.8l-32.8,90.5c-4.4,12.1,1.1,25.6,12.6,31.4   l95,46.7c11.4,5.6,25.2,1.5,31.6-9.3l2.6-4.2l50.4-83.5c5.4-8.9,15.6-13.5,25.9-11.6h0.1c24.6,4.4,50,6.7,76,6.7   c13.8,0,27.5-0.7,41.1-2c9.4-1,18.5,3.6,23.4,11.6l49.5,82.2c6.7,11.3,21.1,15.4,32.7,9.7l94.9-46.7c2.7-1.3,5-3.2,7-5.1   c6.3-6.6,8.6-16.5,5.4-25.5l-24.8-67.8c-2.9-8.3-1.2-17.7,4.3-24.3c1.5-1.7,3.2-3.3,5.1-4.7c47.8-31.9,88.6-72.9,120.4-120.9   c5.3-8.2,15.1-12.1,24.5-10.5c1.3,0.2,2.7,0.6,4,1.1l81.3,29.5c11.8,4.3,24.9-1,30.5-12.3l1.1-2.2l45.7-92.9   C2069.1,945.8,2064.9,931.9,2053.8,925.1z M1294.2,741.9c4.7-16.5,11-33.3,19.4-50.1c15.9-32,55.3-71.6,87.4-87.4   c3.4-1.7,6.9-3.3,10.3-4.9c210.1-94.4,412.7,111.9,310.8,322.1c-13.4,27.5-42.9,59.7-71.7,79.7c-6.7,4.5-13.4,8.6-19.6,11.5   c-29.3,14.2-58.5,22.6-86.9,25.7C1381.8,1056.5,1248.5,907.6,1294.2,741.9z"></path>	</g>	<g>		<path class="st16" d="M2063.3,1249.5l-21.5-12.9c-1.8-1.1-2.8-3.1-2.6-5.2c0.2-2.7,0.3-5.3,0.3-8c0-5-0.4-10-1.1-14.7   c-0.4-2.2,0.7-4.5,2.6-5.6l22.4-13.5c2.4-1.4,3.3-4.5,2.1-7l-10.6-21.5c-1.2-2.4-4-3.6-6.6-2.7l-22.7,8.2   c-2.2,0.8-4.7,0.1-6.2-1.8c-6.2-8.1-13.8-15.1-22.3-20.9c-2.1-1.4-2.9-4.1-2.1-6.4l5-13.8c0.9-2.6-0.2-5.6-2.7-6.8l-21.4-10.4   c-0.4-0.2-0.9-0.4-1.3-0.5c-2.2-0.5-4.5,0.5-5.7,2.5l-9.7,16l-2.4,3.9c-4.4-0.6-8.9-1-13.5-1c-6.2,0-12.2,0.6-18,1.7   c-2.2,0.4-4.5-0.5-5.6-2.5l-10.9-18.1c-1.5-2.5-4.6-3.4-7.2-2.1l-16.4,8.1l-4.7,2.3c-2.6,1.3-3.8,4.3-2.8,6.9l6.9,19   c0.8,2.2,0.2,4.7-1.6,6.1c-5.3,4.3-10.2,9.2-14.5,14.6c-0.4,0.4-0.7,0.9-1.1,1.3c-0.1,0.2-0.2,0.3-0.4,0.4   c-1.5,1.6-3.8,2.1-5.9,1.4l-22.4-8.1c-0.2-0.1-0.5-0.2-0.8-0.2c-2.4-0.5-4.9,0.7-6,3l-10.4,21.3c-1.3,2.6-0.4,5.7,2.1,7.2   l22.4,13.5c1.9,1.1,2.9,3.3,2.5,5.5c-0.7,4.8-1.1,9.8-1.1,14.8c0,2.7,0.1,5.3,0.3,8c0.2,2.1-0.9,4.2-2.7,5.3l-21.6,13   c-2.4,1.4-3.3,4.5-2.1,7l10.5,21.3c1.3,2.6,4.2,3.8,7,2.8l17.9-6.5c2.4-0.9,5.1,0,6.5,2.1c5.5,8.3,12.3,15.8,20.1,22   c1.9,1.5,2.6,4,1.7,6.2l-7.3,20.2c-1,2.7,0.2,5.7,2.8,7l21.2,10.4c2.5,1.3,5.6,0.3,7.1-2.1l0.6-0.9l11.2-18.6c1.2-2,3.5-3,5.8-2.6   h0c5.5,1,11.2,1.5,17,1.5c3.1,0,6.1-0.2,9.2-0.4c2.1-0.2,4.1,0.8,5.2,2.6l11.1,18.4c1.5,2.5,4.7,3.4,7.3,2.2l21.2-10.4   c0.6-0.3,1.1-0.7,1.6-1.1c1.4-1.5,1.9-3.7,1.2-5.7l-5.5-15.1c-0.7-1.9-0.3-3.9,1-5.4c0.3-0.4,0.7-0.7,1.1-1   c10.7-7.1,19.8-16.3,26.9-27c1.2-1.8,3.4-2.7,5.5-2.4c0.3,0.1,0.6,0.1,0.9,0.2l18.1,6.6c2.6,1,5.6-0.2,6.8-2.7l0.2-0.5l10.2-20.7   C2066.8,1254.1,2065.8,1251,2063.3,1249.5z M1893.8,1208.6c1-3.7,2.5-7.4,4.3-11.2c3.6-7.1,12.3-16,19.5-19.5   c0.8-0.4,1.5-0.7,2.3-1.1c46.9-21.1,92.1,25,69.4,71.9c-3,6.1-9.6,13.3-16,17.8c-1.5,1-3,1.9-4.4,2.6c-6.5,3.2-13,5-19.4,5.7   C1913.4,1278.8,1883.6,1245.6,1893.8,1208.6z"></path>	</g>	<g>		<path class="st17" d="M2767.7,849l-32.2-19.4c-2.7-1.6-4.2-4.6-3.9-7.7c0.3-4,0.5-8,0.5-12.1c0-7.5-0.5-14.9-1.7-22.1   c-0.5-3.4,1-6.7,3.9-8.4l33.6-20.3c3.6-2.1,5-6.7,3.1-10.5l-15.8-32.2c-1.8-3.6-6-5.3-9.8-4l-34,12.3c-3.3,1.3-7,0.2-9.2-2.7   c-9.3-12.1-20.6-22.7-33.4-31.3c-3.1-2.1-4.3-6.1-3.1-9.6l7.5-20.7c1.4-3.9-0.3-8.4-4.1-10.3l-32-15.7c-0.7-0.3-1.3-0.6-2-0.7   c-3.3-0.7-6.8,0.8-8.5,3.8l-14.5,24l-3.5,5.9c-6.6-0.9-13.4-1.4-20.3-1.4c-9.2,0-18.3,0.9-27,2.5c-3.3,0.6-6.7-0.8-8.4-3.7   l-16.3-27.1c-2.3-3.7-6.9-5.1-10.8-3.2l-24.6,12.1l-7.1,3.5c-3.9,1.9-5.7,6.4-4.2,10.4l10.3,28.4c1.2,3.3,0.2,7-2.5,9.1   c-8,6.5-15.3,13.9-21.7,21.9c-0.6,0.7-1.1,1.3-1.6,2c-0.2,0.2-0.4,0.5-0.6,0.7c-2.3,2.4-5.7,3.2-8.9,2l-33.6-12.2   c-0.4-0.2-0.8-0.2-1.1-0.3c-3.6-0.7-7.4,1.1-9.1,4.4l-15.7,31.9c-1.9,3.9-0.5,8.5,3.2,10.7l33.6,20.2c2.9,1.7,4.3,5,3.8,8.2   c-1.1,7.2-1.7,14.6-1.7,22.2c0,4,0.2,8,0.5,11.9c0.2,3.2-1.3,6.3-4.1,7.9l-32.3,19.5c-3.6,2.1-4.9,6.7-3.1,10.5l15.7,31.9   c1.9,3.9,6.4,5.7,10.5,4.2l26.9-9.8c3.6-1.3,7.6,0,9.7,3.2c8.2,12.5,18.4,23.6,30.1,33c2.8,2.2,3.9,5.9,2.6,9.3l-11,30.3   c-1.5,4.1,0.4,8.6,4.2,10.5l31.8,15.6c3.8,1.9,8.4,0.5,10.6-3.1l0.9-1.4l16.9-27.9c1.8-3,5.2-4.5,8.6-3.9h0   c8.2,1.5,16.7,2.3,25.4,2.3c4.6,0,9.2-0.2,13.7-0.7c3.2-0.3,6.2,1.2,7.8,3.9l16.6,27.5c2.3,3.8,7.1,5.2,10.9,3.2l31.7-15.6   c0.9-0.5,1.7-1.1,2.3-1.7c2.1-2.2,2.9-5.5,1.8-8.5l-8.3-22.7c-1-2.8-0.4-5.9,1.4-8.1c0.5-0.6,1.1-1.1,1.7-1.6   c16-10.7,29.6-24.4,40.3-40.4c1.8-2.7,5-4.1,8.2-3.5c0.5,0.1,0.9,0.2,1.4,0.4l27.2,9.9c3.9,1.4,8.3-0.3,10.2-4.1l0.4-0.7   l15.3-31.1C2772.8,856,2771.4,851.3,2767.7,849z M2513.6,787.8c1.6-5.5,3.7-11.2,6.5-16.8c5.3-10.7,18.5-23.9,29.2-29.2   c1.1-0.6,2.3-1.1,3.4-1.6c70.3-31.6,138,37.4,104,107.7c-4.5,9.2-14.3,20-24,26.6c-2.3,1.5-4.5,2.9-6.6,3.9   c-9.8,4.8-19.6,7.5-29.1,8.6C2543,893,2498.4,843.2,2513.6,787.8z"></path>	</g>	<g>		<path class="st17" d="M1247.9,244.9l-34.1-15.8c-2.8-1.3-4.7-4.2-4.7-7.3c-0.1-4-0.4-8-0.8-12c-0.8-7.5-2.1-14.8-4.1-21.8   c-0.9-3.3,0.3-6.7,3-8.8l31.2-23.8c3.4-2.5,4.2-7.2,1.9-10.8l-19.2-30.3c-2.2-3.4-6.6-4.6-10.2-2.9l-32.5,15.9   c-3.1,1.6-7,0.9-9.5-1.7c-10.6-11-22.9-20.3-36.6-27.5c-3.3-1.7-5-5.6-4.1-9.2l5.3-21.4c1-4.1-1.2-8.3-5.2-9.7l-33.5-12.1   c-0.7-0.3-1.4-0.4-2.1-0.5c-3.3-0.3-6.6,1.5-8.1,4.7L1073,75.3l-2.9,6.2c-6.7-0.2-13.5,0-20.3,0.8c-9.2,1-18.1,2.8-26.6,5.4   c-3.2,1-6.7-0.1-8.8-2.8l-19.1-25.2c-2.6-3.4-7.4-4.3-11.1-2l-23.2,14.7l-6.6,4.2c-3.6,2.3-5,7-3.1,10.8l13.3,27.1   c1.6,3.1,1,6.9-1.5,9.3c-7.2,7.3-13.7,15.4-19.2,24.1c-0.5,0.7-1,1.4-1.4,2.2c-0.1,0.3-0.3,0.5-0.5,0.7c-2,2.6-5.4,3.8-8.6,3   l-34.7-8.5c-0.4-0.1-0.8-0.2-1.2-0.2c-3.7-0.3-7.2,1.9-8.5,5.4L877,183.9c-1.5,4,0.4,8.5,4.3,10.3l35.6,16.5   c3,1.4,4.9,4.5,4.7,7.8c-0.3,7.3-0.1,14.7,0.7,22.3c0.4,4,1,7.9,1.8,11.8c0.6,3.2-0.6,6.4-3.2,8.3l-30,22.9   c-3.3,2.5-4.2,7.2-1.9,10.7l19,30c2.3,3.6,6.9,5,10.8,3.1l25.7-12.6c3.4-1.7,7.5-0.8,10,2.1c9.5,11.5,20.8,21.5,33.4,29.6   c3,1.9,4.5,5.5,3.6,9l-7.7,31.3c-1,4.2,1.3,8.5,5.3,10l33.3,12.1c4,1.5,8.5-0.4,10.2-4.2l0.7-1.5l13.7-29.6c1.5-3.2,4.7-5,8.2-4.8   l0,0c8.4,0.6,16.9,0.4,25.5-0.5c4.6-0.5,9.1-1.2,13.6-2.1c3.1-0.7,6.3,0.5,8.2,3l19.4,25.6c2.6,3.5,7.6,4.4,11.2,2l29.9-18.9   c0.8-0.5,1.6-1.2,2.1-2c1.8-2.4,2.3-5.8,0.9-8.7l-10.7-21.6c-1.3-2.7-1-5.8,0.6-8.2c0.4-0.6,0.9-1.2,1.5-1.7   c14.7-12.3,26.8-27.4,35.7-44.5c1.5-2.9,4.6-4.6,7.8-4.4c0.5,0,0.9,0.1,1.4,0.2l28.1,6.9c4.1,1,8.2-1.2,9.7-5.2l0.3-0.8l11.9-32.5   C1253.8,251.2,1251.9,246.7,1247.9,244.9z M988.7,211.4c1-5.7,2.5-11.5,4.6-17.4c4.1-11.2,15.8-25.8,25.9-32.2   c1.1-0.7,2.2-1.3,3.2-2c66.5-39,141.3,22.3,115,95.9c-3.5,9.6-12.1,21.4-21,29.1c-2.1,1.8-4.1,3.3-6.1,4.5   c-9.2,5.8-18.6,9.6-28,11.7C1029.2,312.8,979.5,268.1,988.7,211.4z"></path>	</g>	<g>		<g>			<path class="st12" d="M1455.1,1204.7c2,2.3,2.2,4.8,1.3,7.5c0,0,0,0,0,0c-1.8,5-7.8,10.6-14.8,16.2c-0.9,0.7-1.7,1.4-2.4,2    c-0.2,0.2-0.4,0.3-0.5,0.5c-0.1,0.1-0.3,0.3-0.4,0.4c-6.5,6-4.1,7.4-15.7,19.5c-13.3,13.9-22.5,14.1-25.1,12.8    c-2.2-1.1,2.3-8.4,7.2-16.7c0.2-0.4,0.5-0.8,0.7-1.2c0.7-1.1,1.3-2.2,2-3.3c5.8-9.9,4.3-14.6,2.9-29.4    c-1.1-12-18.7-67.2-18.7-67.2l25.5-4.4c0,0,7.7,43.9,16.2,50.7c4.5,3.6,9.6,3.6,13.9,6.3c0.3,0.2,0.6,0.4,0.9,0.6    C1450.6,1200.7,1453.1,1202.4,1455.1,1204.7z"></path>			<path class="st18" d="M1455.1,1204.7c2,2.3,2.2,4.8,1.3,7.5c0,0,0,0,0,0c-2.2,5-8.1,10.6-14.8,16.2c-0.9,0.7-1.7,1.4-2.3,2    c-0.2,0.2-0.4,0.3-0.5,0.5c-0.1,0.1-0.3,0.3-0.4,0.4c-6.5,6-4.1,7.4-15.7,19.5c-13.3,13.9-22.5,14.1-25.1,12.8    c-2.2-1.1,2.3-8.4,7.2-16.7c2.6-0.9,14.6-5.8,23.7-17.5c8-10.2,13.4-23.4,18.8-31c0.3,0.2,0.6,0.4,0.9,0.6    C1450.6,1200.7,1453.1,1202.4,1455.1,1204.7z"></path>			<path class="st12" d="M1249.3,1188.8c-1.6,7.9-12.8,6.6-25.4,3.5c-12.5-3.1-9.6,0.6-27.4-1.4c-17.9-2-23.3-8.6-23.8-11.3    c-0.5-2.4,8.3-3.2,17.8-4.3c1.2-0.1,2.4-0.3,3.6-0.4c10.7-1.3,18.5-8.2,28.2-13.9c9.2-5.4,22.9-27.2,22.9-27.2l24.5,1.9    c0,0-12.8,19.5-17.8,28c-2.9,5-2.8,11.6-2.4,16.7C1249.7,1183.2,1249.8,1186,1249.3,1188.8z"></path>			<path class="st18" d="M1223.9,1192.3c-12.5-3.1-9.6,0.6-27.4-1.4c-17.9-2-23.3-8.6-23.8-11.3c-0.5-2.4,8.3-3.2,17.8-4.3l0.1,0.2    c0,0,10.7,7.6,25.6,7.9c12.1,0.3,24.9-3.2,33.3-3c0.2,2.8,0.4,5.6-0.2,8.4C1247.7,1196.7,1236.5,1195.3,1223.9,1192.3z"></path>			<path class="st12" d="M1303.8,829.1c0,0-5.8-14.3-12.3-14.9c-6.4-0.6-26.8-3.8-28.3-0.9c-1.5,2.9,0,13.4,4.4,17.2    c4.4,3.8,31.5,9.9,31.5,9.9L1303.8,829.1z"></path>			<path class="st19" d="M1343.1,1032.2l52.8,142c0,0,8.1,0.8,15.9-1.5c7.2-2.1,15.3-7.5,15.3-7.5s-13.1-136.4-37.1-164.7    C1366,972.2,1343.1,1032.2,1343.1,1032.2z"></path>			<path class="st18" d="M1551.9,974.7c0,0-151.6-51.3-185.5-40.4c-33.8,10.9-135.4,212.9-135.4,212.9s2.3,3,8.5,5.4    c5.8,2.2,19.9,2,19.9,2s91.6-78.6,102.6-101.5c10.9-22.9,15.3-44.7,26.2-42.5c10.9,2.2,140.7,53.5,170.2,22.9    c29.5-30.5,21.8-70.2,21.8-70.2L1551.9,974.7z"></path>			<path class="st15" d="M1459.2,736.2c-2.4-5-5.1-13.9-6.5-29.7c0.2,1.6,2.9,21.5,10.6,32.8c31.5,20.7,92,89.8,90.8,102.9    c0,0,21.3-36.1,21.7-36.3c0,0,39.3-49.9-7.3-78.6c-23.7-14.5-23.5-33.2-22.5-49.4c1-16.2-6.5-86-53.8-67.7c0,0-7.6-3.4-11-2.9    c0,0,2.8,0.5,4.2,2c-5.5-0.3-13.3,0.1-19.9,3.8C1448,623,1432.5,711.6,1459.2,736.2z"></path>			<path class="st12" d="M1465.2,740.4c-0.2,0.1,15.2,8.1,26.8,4.9c10.9-3,18-17.1,17.8-17.1c-4.6-0.9-5.9-7.3-5.8-34.5l-2.1,0.4    l-35,6.9c0,0,0.8,11,0.8,21.4C1467.7,731.2,1467.2,739.4,1465.2,740.4z"></path>			<path class="st13" d="M1466.9,701c0,0,0.8,11,0.8,21.4c19.6-0.6,30-18.4,34.2-28.4L1466.9,701z"></path>			<path class="st15" d="M1505.6,690.3c0,0,10.3-16.2,12.7-30.1c1.8-9.9-3.3-46.7-40.2-41.4c0,0-10.7,1.1-20.8,7.9    c-8,5.4-19.6,17.1-6.6,49.2l3.4,10.8L1505.6,690.3z"></path>			<path class="st12" d="M1460.4,710.8c0,0,46.4,0.8,46.4-28.1c0-28.9,6-48.3-23.6-50c-29.6-1.7-35.4,9.3-37.7,19    C1443.1,661.3,1448.3,709.9,1460.4,710.8z"></path>			<path class="st15" d="M1462.1,632c0,0,12.7,33.9,32.2,38.9c19.5,5,27.9-0.2,27.9-0.2s-15-11.9-18.1-32.6    C1504.2,638.1,1471.7,615.9,1462.1,632z"></path>			<path class="st15" d="M1465.2,634.8c0,0-9.5,7.6-11.8,14.9c-2.3,7.4-3.4,22.5-7.8,22c0,0-9.6-23,1.2-36.1    C1458.2,621.8,1465.2,634.8,1465.2,634.8z"></path>			<path class="st20" d="M1568.5,865.2c4.6-19.2-11-56.4-27.2-87.2c-14.7-27.9-30-50.6-31.4-49.8c-38.9,23.1-42.4,3.9-42.4,3.9    s-35.3,4.7-45.3,21.9c-13.8,23.8-28.9,95.2-43.7,94.2c-6.8-0.5-75.2-26.2-75.2-26.2s-11.4,10.7-9.2,23.8c0,0,33.8,22.6,62.3,37    c15.1,7.6,28.7,13,35.2,11.5c13-3.1,33.3-33.2,44.3-51c0,0,0-0.1,0.1-0.1c14,79.3-5,97.4,4.6,105.7c10.2,8.8,24.7-4.2,56.7,9.7    c21,9.1,50.1,22.3,69.7,24.6c10.3,1.2,18-0.6,20.5-7.5C1594.7,955.4,1559.8,901.7,1568.5,865.2z"></path>			<path class="st21" d="M1470.7,693.3c0,0-0.9,3.7-10,3.1c0,0-7.7-0.5-7.4-4.5C1453.2,691.9,1460.7,689.1,1470.7,693.3z"></path>			<path class="st14" d="M1587.4,975.5c-2.5,6.9-10.2,8.7-20.5,7.5c-13.6-5.9-72.2-28.6-71.6-44c1-22.8,11.3-23.5,4-51.6    c-5.8-22.6,48.3-64.6,57-73.7c16.2,30.8,16.7,32.3,12.1,51.5C1559.8,901.7,1594.7,955.4,1587.4,975.5z"></path>			<path class="st14" d="M1435.8,843.2c-11,17.7-31.3,47.9-44.3,51c-6.4,1.5-20.1-3.8-35.2-11.5c11,2.8,21.7,2.8,32.1,1.8    c11.3-1.1,14.5-14.9,32.4-35.6C1432.4,835.4,1435.3,838.8,1435.8,843.2z"></path>			<path class="st12" d="M1490.2,886.9c0,0-9.8-7.6-19.1-5.8c-9.3,1.8-13.8,8.2-13.5,11.1c0.4,2.9,5.3,11.1,12.4,11.8    c7.1,0.7,27.3-4.4,27.3-4.4L1490.2,886.9z"></path>			<path class="st20" d="M1509.9,728.1c0,0,37.8,2.3,50.9,20.6c18.4,25.7,50.4,130.6,41.7,154.6l-115-0.5c0,0-2.8-13,1.1-19.3    c3.9-6.3,66.9-16.5,69.8-19.4c2.9-2.9-36.4-56.7-36.4-65.5C1522,789.9,1509.9,728.1,1509.9,728.1z"></path>		</g>		<g>			<g>				<polygon class="st22" points="1455,850.7 1315.9,850.7 1341,938.2 1480.3,938.2     "></polygon>				<rect x="1341.5" y="934.8" class="st9" width="182.1" height="3.4"></rect>			</g>			<path class="st9" d="M1396.4,893c-0.9-3.1-4.1-5.6-7.2-5.6s-4.9,2.5-4,5.6c0.9,3.1,4.1,5.6,7.2,5.6    C1395.5,898.6,1397.3,896.1,1396.4,893z"></path>		</g>	</g>	<g>		<g>			<path class="st23" d="M940.7,1098.3v37.1c0,7.7-6.3,13.9-13.9,13.9H707.4c-7.7,0-13.9-6.3-13.9-13.9v-37.1    c0-7.7,6.3-13.9,13.9-13.9h219.4C934.4,1084.3,940.7,1090.6,940.7,1098.3z"></path>			<path class="st24" d="M940.7,1128.6v6.8c0,7.7-6.3,13.9-13.9,13.9H707.4c-7.7,0-13.9-6.3-13.9-13.9v-7.3h243.2    C938.1,1128.1,939.4,1128.3,940.7,1128.6z"></path>			<g>				<path class="st25" d="M746.3,1149.3l-9.9,37.5c0,0,0,0,0,0l-41.2,155.9h-4.3l23.8-129.3c0-0.1,0.1-0.3,0.1-0.4l11.8-64     L746.3,1149.3z"></path>			</g>			<path class="st26" d="M746.3,1149.3l-9.9,37.5c0,0,0,0,0,0c-0.6,0.3-18.6,9.6-21.6,26.2l11.8-64L746.3,1149.3z"></path>			<g>				<path class="st25" d="M940.7,1342.7h-4.3l-33.5-127c0,0,0,0,0,0l-7.6-28.9c0,0,0,0,0,0l-9.9-37.5l19.8-0.3l6.7,36.6l5,27.4     c0,0.1,0.1,0.3,0.1,0.4L940.7,1342.7z"></path>			</g>			<path class="st25" d="M873.8,1198.4C873.8,1198.4,873.8,1198.4,873.8,1198.4C873.7,1198.1,873.7,1198.2,873.8,1198.4z"></path>			<path class="st26" d="M911.8,1185.5c-3.6,5.3-8.7,15.3-9,30.1l-7.6-28.9c0,0,0,0,0,0l-9.9-37.5l19.8-0.3L911.8,1185.5z"></path>		</g>		<g id="man_10_">			<path class="st10" d="M663.4,353.7c5.1-5.3,8.6-3.3,8.6-3.3s60.2,46.2,66,49.6c5.7,3.4,84.1,5.6,84.1,5.6s31.4-0.4,39,15.7    c6.6,14,1.9,26-4.9,34.9c-8.1,10.5-22,14.9-34.8,11.2c-28.7-8.4-85.8-25.5-96.5-32c-23.8-14.5-66.7-72.6-66.7-72.6    S659.3,357.9,663.4,353.7z"></path>			<g>				<path class="st16" d="M728.2,308.8l-30.1-18.1c-2.5-1.5-3.9-4.3-3.7-7.2c0.3-3.7,0.5-7.5,0.5-11.3c0-7-0.5-13.9-1.6-20.6     c-0.5-3.1,0.9-6.2,3.6-7.9l31.4-19c3.4-2,4.6-6.3,2.9-9.8l-14.8-30.1c-1.7-3.4-5.6-5-9.2-3.7l-31.7,11.5     c-3.1,1.2-6.5,0.2-8.6-2.5c-8.7-11.3-19.3-21.2-31.2-29.3c-2.9-2-4.1-5.7-2.9-9l7-19.3c1.3-3.7-0.3-7.8-3.8-9.6l-29.9-14.6     c-0.6-0.3-1.2-0.5-1.9-0.7c-3.1-0.7-6.3,0.7-8,3.5l-13.6,22.4l-3.3,5.5c-6.2-0.9-12.5-1.3-18.9-1.3c-8.6,0-17.1,0.8-25.2,2.3     c-3.1,0.6-6.2-0.8-7.9-3.5l-15.2-25.3c-2.1-3.4-6.5-4.7-10.1-2.9l-23,11.3l-6.6,3.3c-3.6,1.8-5.3,6-3.9,9.7l9.6,26.5     c1.1,3.1,0.2,6.5-2.3,8.5c-7.5,6.1-14.3,12.9-20.3,20.4c-0.6,0.6-1,1.2-1.5,1.9c-0.2,0.2-0.3,0.4-0.5,0.6     c-2.1,2.3-5.4,3-8.3,1.9l-31.4-11.4c-0.3-0.2-0.7-0.2-1.1-0.3c-3.4-0.7-6.9,1-8.5,4.1l-14.6,29.8c-1.8,3.6-0.5,7.9,2.9,10     l31.4,18.9c2.7,1.6,4.1,4.6,3.6,7.7c-1,6.7-1.6,13.7-1.6,20.8c0,3.8,0.2,7.5,0.5,11.1c0.2,3-1.2,5.9-3.8,7.4L392.7,309     c-3.3,2-4.6,6.2-2.9,9.8l14.7,29.8c1.8,3.6,5.9,5.3,9.8,3.9l25.1-9.1c3.4-1.2,7.1,0,9.1,2.9c7.7,11.7,17.2,22.1,28.1,30.8     c2.6,2,3.6,5.6,2.5,8.7l-10.3,28.3c-1.4,3.8,0.3,8,3.9,9.8l29.7,14.6c3.6,1.8,7.9,0.5,9.9-2.9l0.8-1.3l15.7-26.1     c1.7-2.8,4.9-4.2,8.1-3.6h0c7.7,1.4,15.6,2.1,23.7,2.1c4.3,0,8.6-0.2,12.8-0.6c2.9-0.3,5.8,1.1,7.3,3.6l15.5,25.7     c2.1,3.5,6.6,4.8,10.2,3l29.6-14.6c0.8-0.4,1.6-1,2.2-1.6c2-2.1,2.7-5.2,1.7-8l-7.7-21.2c-0.9-2.6-0.4-5.5,1.3-7.6     c0.5-0.5,1-1,1.6-1.5c14.9-10,27.7-22.8,37.6-37.8c1.6-2.6,4.7-3.8,7.7-3.3c0.4,0.1,0.8,0.2,1.3,0.3l25.4,9.2     c3.7,1.3,7.8-0.3,9.5-3.8l0.3-0.7l14.3-29C733,315.3,731.7,310.9,728.2,308.8z M490.9,251.6c1.5-5.2,3.4-10.4,6-15.7     c5-10,17.3-22.4,27.3-27.3c1.1-0.5,2.1-1,3.2-1.5c65.6-29.5,128.9,35,97.1,100.6c-4.2,8.6-13.4,18.6-22.4,24.9     c-2.1,1.4-4.2,2.7-6.1,3.6c-9.2,4.4-18.3,7-27.2,8C518.3,349.9,476.7,303.4,490.9,251.6z"></path>			</g>			<path class="st27" d="M596.8,368.9c0,0,0.1-22.2-3.4-28.7c-3.5-6.5-11.6-14.5-16.1-12c-4.6,2.6-6,24.2-4.6,28.1    c1.4,3.9,11.8,18.4,11.8,18.4L596.8,368.9z"></path>			<path class="st28" d="M872.4,1084.3c5-4.2,2-28,2-28s-25.5-20.4-29-4.8c-3.5,15.6-24.2,22.6-36,24.6c-7.9,1.3-10.5,5.5-11.4,8.2    H872.4z"></path>			<path class="st29" d="M875.3,1057.4c-23.6,3.7-32.3-2-32.3-2c0.3-23.3-6.9-75.7-16.7-136c-13-79.4-30.6-172.4-41.7-229.7    c-6.4-33-10.7-54.1-10.7-54.1l19.3-0.4l96.3-1.9c0,0-7.2,106.6-5.2,159.2c0.5,12.6,1.5,22.1,3.2,26.3    C904,858.8,875.3,1057.4,875.3,1057.4z"></path>			<path class="st28" d="M884.4,792.6c-13.1,24.5-45.9,87.5-58.1,126.9c-13-79.4-30.6-172.4-41.7-229.7c0.5-21.7,3.1-40.6,8.7-54.5    l96.3-1.9C889.6,633.4,882.4,740,884.4,792.6z"></path>			<path class="st28" d="M791.3,1084.3c5-4.2,2-28,2-28s-25.5-20.4-29-4.8c-3.5,15.6-24.2,22.6-36,24.6c-7.9,1.3-10.5,5.5-11.4,8.2    H791.3z"></path>			<path class="st29" d="M732.1,633.3c0,0,37.8,350.1,30.3,420.7c0,0,8.1,6.3,31.9,4.9c0,0,43.2-201.7,34.1-234.3    c-6.4-22.7,19-182.9,19-182.9L732.1,633.3z"></path>			<path class="st27" d="M825.2,383c0,0-48.1,24-72,13.1c0,0,10-13,21.3-18.4c-0.2-4.3-0.4-8.1-0.4-11.6    c-0.2-11.4,0.4-17.8,0.4-17.8l20.7-15.1l14.1-10.2c-0.8,6.3-0.9,12.2-0.6,17.6C810.6,368.3,825.2,383,825.2,383z"></path>			<path class="st30" d="M808.7,340.6c0,0-11.2,22.4-34.6,25.6c-0.2-11.4,0.4-17.8,0.4-17.8l20.7-15.1    C804.3,336.7,808.7,340.6,808.7,340.6z"></path>			<path class="st27" d="M769.1,346.9c0,0,43.1,15.3,52.2-11.6c9.1-27,20.8-43.1-6.3-54.1c-27.1-10.9-36-2.5-41.2,5.8    C768.6,295.3,758.1,342.2,769.1,346.9z"></path>			<path class="st11" d="M892.6,633.3c-6.7,14-156,13.4-163.3,3.5c-3-4-6.4-44.3-8.4-91.1c-1.1-25.9-1.7-53.9-1.6-78.8    c0.2-40.7,2.5-73.2,8.2-75.7c32-13.9,51.8-22.7,93.5-21.4c12.9,0.4,24.5,7.8,30.2,19.4c10,20.8,24.3,57.6,25.4,101.1    C878.3,557.3,901.1,615.6,892.6,633.3z"></path>			<path class="st10" d="M767.6,439.3c0,0-4.9,70.1-46.7,106.4c-1.1-25.9-1.7-53.9-1.6-78.8C731.8,450.2,748.3,438.2,767.6,439.3z"></path>			<path class="st11" d="M788.1,371.3c0,0-45.9,0.3-60.3,13.7c-10.3,9.6-76.6,61.9-80.9,61.2c-4.2-0.7-46.9-85.9-46.9-85.9    s-21.1,1.8-24.6,10.9c0,0,19.9,106.4,62.7,129.6c0,0,108.3-20.5,140.4-56.4C795.2,425.8,788.1,371.3,788.1,371.3z"></path>			<path class="st31" d="M771,266c0,0,2.5,25.7,10.3,32.7c7.7,7,5.7,16.7,6.5,18.1c0.8,1.4,8.8-2.7,10.2-0.4c3.2,5.4-1.8,9.4-5,10.7    c-3.2,1.3,8.2,23.4,16.5,24.2c14.4,1.4,36.7-38.4,38.6-50.1c2.5-15.3-6.2-39.1-31-37.9C778.1,265.2,770.2,256.7,771,266z"></path>		</g>	</g>	<g>		<rect x="1888.1" y="153.3" class="st17" width="46" height="286.6"></rect>		<rect x="1965.6" y="73.5" class="st17" width="46" height="366.5"></rect>		<rect x="2047.8" y="222.7" class="st17" width="46" height="217.3"></rect>		<path class="st17" d="M2009.1,18.6h-39c-2.2,0-4,1.8-4,4s1.8,4,4,4h39c2.2,0,4-1.8,4-4S2011.3,18.6,2009.1,18.6z"></path>		<path class="st17" d="M1979,41.4c2.2,0,4-1.8,4-4c0-2.2-1.8-4-4-4h-8.9c-2.2,0-4,1.8-4,4c0,2.2,1.8,4,4,4H1979z"></path>		<path class="st17" d="M2090.3,179.9h-39c-2.2,0-4,1.8-4,4l0,0c0,2.2,1.8,4,4,4h39c2.2,0,4-1.8,4-4l0,0   C2094.3,181.7,2092.5,179.9,2090.3,179.9z"></path>		<path class="st17" d="M2051.4,202.6h8.9c2.2,0,4-1.8,4-4s-1.8-4-4-4h-8.9c-2.2,0-4,1.8-4,4S2049.1,202.6,2051.4,202.6z"></path>	</g></g></svg>