<svg width="98" height="25" viewBox="0 0 98 25" fill="none" xmlns="http://www.w3.org/2000/svg">
<path d="M11.0128 0.952352C9.75582 1.09473 7.87031 1.68613 6.79752 2.27754C3.91508 3.84368 1.96456 6.28597 0.989298 9.53871C0.794246 10.1739 0.566685 11.9043 0.577521 12.7148C0.577521 13.4267 0.794246 15.168 0.924281 15.5842C0.989298 15.7813 1.13017 16.2523 1.24937 16.6137C1.44442 17.227 2.38717 19.1545 2.54972 19.286C2.58223 19.3188 2.75561 19.5379 2.91815 19.7898C3.31909 20.3921 4.37021 21.4654 5.16125 22.0787C5.76808 22.5497 7.48021 23.5463 7.69693 23.5572C7.75111 23.5572 7.76195 23.1411 7.72944 22.5935C7.65358 21.3778 7.88115 19.7241 8.36878 18.0374C8.45547 17.7527 8.52048 17.3803 8.52048 17.216C8.52048 17.0518 8.56383 16.8765 8.61801 16.8218C8.67219 16.7561 8.76972 16.4385 8.8239 16.1099C8.88892 15.7813 8.99728 15.2775 9.07313 14.9928C9.1815 14.5657 9.17066 14.4014 9.01895 13.9414C8.80223 13.2405 8.79139 12.1015 9.00812 11.5539C9.51742 10.2506 10.0809 9.75775 11.0345 9.75775C12.1831 9.75775 12.7358 10.6339 12.5191 12.1015C12.4215 12.7695 12.1506 13.8209 11.9772 14.1495C11.9339 14.2481 11.858 14.5219 11.8255 14.7519C11.7822 14.9928 11.6955 15.3323 11.6413 15.5185C11.4896 15.9456 11.7822 16.778 12.1723 17.0956C12.5407 17.3913 13.3101 17.4789 14.0145 17.3146C14.5129 17.2051 14.7188 17.0737 15.239 16.5699C15.8566 15.9566 16.3226 15.2447 16.3226 14.9052C16.3226 14.8066 16.3768 14.6752 16.4418 14.6095C16.7452 14.3028 16.9077 11.9153 16.6802 10.9077C16.4309 9.80155 15.6616 8.71731 14.6646 8.08209C13.6677 7.43593 11.6088 7.24974 10.341 7.68782C9.4524 7.99448 8.66136 8.50922 8.15205 9.11158C7.69693 9.64823 7.22014 10.5244 7.22014 10.831C7.22014 10.9406 7.16596 11.0829 7.10094 11.1486C7.03592 11.2144 6.96007 11.6305 6.92756 12.0796C6.87338 12.7476 6.91672 13.0543 7.11177 13.7114C7.24181 14.1604 7.48021 14.6861 7.62108 14.8833C7.91366 15.2775 7.91366 15.4309 7.64275 16.4823C7.5669 16.767 7.43686 17.0299 7.36101 17.0627C6.67832 17.3256 5.29129 15.6718 4.82533 14.029C4.65195 13.4048 4.64111 11.1815 4.81449 10.5244C4.89034 10.2506 5.02038 9.87822 5.10707 9.68108C5.19376 9.4949 5.26961 9.30871 5.26961 9.26491C5.26961 9.2211 5.48634 8.84873 5.75724 8.44351C7.16596 6.29692 9.4524 5.15791 12.3457 5.15791C13.0067 5.15791 13.6894 5.20172 13.8736 5.25648C15.369 5.72742 15.7699 5.88074 16.3551 6.23121C17.4929 6.92118 18.3164 7.86305 19.14 9.44014C19.1942 9.53871 19.27 9.80155 19.3025 10.0206C19.3459 10.2396 19.4217 10.4477 19.4759 10.4806C19.5301 10.5134 19.5735 11.2253 19.5735 12.0686C19.5735 13.5909 19.4651 14.2043 19.01 15.4528C18.5007 16.8218 17.1895 18.3331 15.9975 18.9246C15.3148 19.2531 14.0361 19.6145 13.5268 19.6145C12.8441 19.6145 11.5005 19.045 11.132 18.585C10.9586 18.377 10.7961 18.4536 10.7961 18.7493C10.7961 18.8588 10.7528 19.045 10.6877 19.1545C10.6336 19.2531 10.536 19.5598 10.4818 19.8336C10.1676 21.2792 9.72331 22.4511 9.04062 23.5463C8.83474 23.8858 9.00811 24.0829 9.5716 24.1596C9.85334 24.2034 10.2326 24.2801 10.406 24.3348C10.8394 24.4772 13.1909 24.4553 13.9819 24.3129C14.6971 24.1815 15.8566 23.8529 16.3768 23.6339C19.6493 22.2759 22.1308 19.516 23.2036 16.0004C23.7779 14.1276 23.8104 11.9481 23.2903 9.75775C23.1169 9.04587 23.0627 8.88159 22.5968 7.78639C21.9249 6.1874 20.4078 4.31461 18.8691 3.16465C17.5471 2.17897 16.2467 1.60947 14.2203 1.11663C13.6569 0.985208 11.6522 0.875688 11.0128 0.952352ZM39.9131 4.90602C39.4905 4.97173 38.8186 5.67266 38.6452 6.22026C38.461 6.82261 38.6452 7.46878 39.1654 7.97257C40.314 9.10063 42.3079 8.03828 42.0586 6.41739C41.9069 5.38791 40.975 4.73079 39.9131 4.90602ZM28.1016 5.55219C28.004 5.6617 28.004 18.8698 28.1124 19.0231C28.1666 19.1107 28.6325 19.1436 29.5428 19.1326L30.8973 19.1217L30.9515 16.8984C30.9948 15.0914 31.0382 14.6533 31.1682 14.5766C31.2549 14.5219 31.9918 14.4671 32.8045 14.4671C34.5816 14.4671 35.3293 14.3357 36.1421 13.8976C37.204 13.3171 37.8217 12.4848 38.1576 11.1596C38.3635 10.3272 38.3635 9.72489 38.1468 8.87064C37.9517 8.104 37.865 7.91781 37.3991 7.29355C36.8247 6.51596 36.2396 6.08883 35.286 5.74932C34.755 5.57409 34.3107 5.54123 31.4391 5.50838C29.6512 5.48647 28.1449 5.50838 28.1016 5.55219ZM34.0507 8.27923C34.7767 8.50922 35.1343 8.83778 35.2968 9.42919C35.5027 10.2068 35.351 10.9296 34.8959 11.3677C34.3974 11.8386 33.9531 11.9481 32.5011 11.9481C31.5475 11.9481 31.2549 11.9153 31.1249 11.7729C30.984 11.6415 30.9515 11.3239 30.9515 10.0754C30.9515 8.104 30.9407 8.11495 32.4469 8.11495C33.0971 8.11495 33.7256 8.18066 34.0507 8.27923ZM53.0574 7.63306C53.0574 8.38875 53.0033 9.10063 52.9491 9.2211C52.8732 9.36347 52.7215 9.42919 52.4614 9.42919C52.2664 9.42919 52.0822 9.47299 52.0605 9.53871C52.0497 9.59347 52.0497 9.97679 52.0822 10.382C52.1363 11.1048 52.1472 11.1158 52.4723 11.1925C52.6565 11.2253 52.8624 11.291 52.9274 11.3348C53.0249 11.3896 53.0574 12.2548 53.0574 14.4452C53.0574 17.3913 53.0683 17.5008 53.3067 17.9389C53.8051 18.8698 54.5853 19.1984 56.1674 19.1545L57.2294 19.1217L57.2619 18.0594L57.2944 16.9861H57.0235C56.6117 16.9861 56.0049 16.6575 55.9399 16.3946C55.9074 16.2632 55.8749 15.1023 55.8749 13.799C55.8749 12.0029 55.9074 11.4005 56.0157 11.3129C56.0916 11.2472 56.395 11.1815 56.6876 11.1596L57.2294 11.1267V9.48395L56.6334 9.45109C56.3083 9.42919 56.0049 9.35252 55.9615 9.28681C55.9182 9.21015 55.8749 8.49827 55.8749 7.69877V6.25311H53.0574V7.63306ZM93.3357 6.31882C93.2924 6.36263 93.2599 7.05261 93.2599 7.8521C93.2599 9.40728 93.2491 9.42919 92.6531 9.42919C92.3822 9.42919 92.3822 9.44014 92.4147 10.2725C92.4472 11.1048 92.458 11.1267 92.7397 11.1596C92.8915 11.1815 93.0757 11.2582 93.1299 11.3239C93.1949 11.4005 93.2599 12.7257 93.2924 14.4123C93.3249 16.0332 93.3791 17.5117 93.4224 17.687C93.5525 18.1689 94.2243 18.7822 94.8636 18.9903C95.5788 19.2312 97.3993 19.2531 97.5835 19.0231C97.6702 18.9246 97.7027 18.5303 97.6811 17.9608L97.6486 17.0408L97.2693 16.9751C96.8575 16.9094 96.3916 16.6904 96.2724 16.5042C96.229 16.4385 96.1857 15.2447 96.1857 13.8538C96.1857 10.9953 96.1207 11.1815 97.0634 11.1815C97.6811 11.1815 97.7353 11.072 97.6811 10.0754L97.6486 9.48395L96.9442 9.42919L96.2399 9.37443L96.1857 7.84115L96.1315 6.30787L94.7661 6.27502C94.0184 6.26406 93.3791 6.28597 93.3357 6.31882ZM47.6935 9.16634C47.1625 9.30871 46.5449 9.67013 46.1331 10.0973C45.6346 10.623 45.5046 10.5901 45.4504 9.92203L45.4179 9.48395H42.7088V19.1217L44.0742 19.1436C45.4179 19.1765 45.4504 19.1655 45.5154 18.9246C45.5479 18.7931 45.5804 17.4022 45.5804 15.8251C45.5804 12.7038 45.5913 12.6162 46.2306 12.0029C46.5123 11.7291 46.6641 11.6743 47.2709 11.6415L47.9752 11.5977L48.3979 12.0467C48.8963 12.5724 48.8421 12.0686 48.8855 16.6027C48.8963 17.8075 48.9072 18.8698 48.918 18.9793C48.9397 19.1326 49.113 19.1545 50.3267 19.1326L51.7029 19.1217V11.4334L51.3887 10.8091C50.8468 9.72489 50.0124 9.21015 48.7338 9.14443C48.2786 9.13348 47.8127 9.13348 47.6935 9.16634ZM61.2388 9.16634C60.0685 9.48395 59.505 9.80155 58.779 10.5244C57.8037 11.521 57.3594 12.6819 57.3594 14.2481C57.3703 16.997 59.0716 19.0341 61.5856 19.275C63.7311 19.4831 65.3891 18.8479 66.451 17.4132C66.6027 17.2051 66.9278 16.537 66.9278 16.4166C66.9278 16.3727 66.2993 16.3289 65.5408 16.3289H64.1537L63.8287 16.6684C63.4494 17.0627 62.9184 17.3146 62.4308 17.3146C61.9431 17.3146 61.1955 16.9641 60.8487 16.5918C60.5886 16.2961 60.2094 15.4418 60.2094 15.1461C60.2094 15.0476 61.0004 15.0147 63.5469 15.0147C65.3782 15.0147 66.9278 14.9709 67.0037 14.9271C67.1662 14.8176 67.0145 13.0762 66.7761 12.441C66.2885 11.1158 65.3674 9.99869 64.4355 9.60442C64.1646 9.4949 63.8503 9.35252 63.742 9.29776C63.5144 9.17729 61.5856 9.07872 61.2388 9.16634ZM63.3519 11.5648C63.7745 11.8605 64.1429 12.5615 64.0887 12.9557C64.0562 13.2076 64.0345 13.2076 62.2032 13.2405C60.0902 13.2733 60.0793 13.2624 60.4152 12.4738C60.6536 11.9262 61.1304 11.4334 61.5747 11.291C62.084 11.1267 62.9076 11.2582 63.3519 11.5648ZM77.2764 9.16634C76.0194 9.50585 75.1417 10.0644 74.459 10.9296C74.1881 11.2801 73.9714 11.6086 73.9714 11.6743C73.9714 11.7291 73.8955 11.9262 73.798 12.1124C73.7005 12.2877 73.5596 12.8353 73.4837 13.3281C73.1045 15.6718 74.1448 17.8622 76.0953 18.8479L76.843 19.2312H78.4142C80.0397 19.2312 80.1805 19.1984 81.1775 18.6617C81.9035 18.2674 83.0955 16.7342 82.9113 16.4275C82.8679 16.3727 82.2503 16.3289 81.5242 16.3289H80.1914L79.9205 16.6465C78.8369 17.8841 76.8105 17.2489 76.377 15.5294C76.312 15.2994 76.312 15.1023 76.3662 15.0585C76.4204 15.0257 77.97 15.0037 79.823 15.0147C82.467 15.0147 83.1822 14.9928 83.193 14.8833C83.2905 13.5143 82.6404 11.4882 81.8277 10.612C81.3725 10.1192 80.5815 9.57156 80.1914 9.47299C80.018 9.42919 79.823 9.35252 79.7471 9.29776C79.5954 9.17729 77.6124 9.07872 77.2764 9.16634ZM78.9669 11.302C79.4545 11.4772 80.018 12.0905 80.1047 12.5615C80.2347 13.2733 80.2456 13.2733 78.23 13.2405C76.4204 13.2076 76.4095 13.2076 76.377 12.9557C76.3337 12.6491 76.7129 11.8934 77.038 11.6086C77.504 11.2144 78.3167 11.0829 78.9669 11.302ZM86.704 9.16634C84.4825 9.70299 83.6806 10.5025 83.6698 12.1672C83.6698 13.9633 84.5584 14.719 87.1916 15.1899C89.0012 15.5075 89.5214 15.7923 89.4997 16.4823C89.4889 16.9751 89.153 17.2927 88.4811 17.4351C87.6359 17.6213 86.9749 17.4132 86.4439 16.8108L86.0213 16.3289H84.7101C83.6481 16.3289 83.3989 16.3618 83.3989 16.4823C83.3989 16.7999 83.8324 17.6322 84.1899 18.0484C84.5259 18.4098 84.7859 18.585 85.8046 19.0779C85.9021 19.1326 86.4331 19.2203 86.964 19.286C87.9501 19.4064 89.6623 19.2969 90.0957 19.0779C90.1932 19.0341 90.475 18.8917 90.7134 18.7822C91.331 18.4865 91.9162 17.8184 92.1329 17.1832C92.3713 16.4604 92.3063 15.4528 91.9704 14.7519C91.5694 13.9305 90.5075 13.339 88.9254 13.0543C86.8882 12.6929 86.8557 12.6819 86.5306 12.3643C86.1405 11.9591 86.1405 11.8167 86.5306 11.3786C86.8448 11.0282 86.8665 11.0172 87.7334 11.0172C88.6003 11.0172 88.622 11.0282 88.9362 11.3786C89.1096 11.5758 89.2505 11.8058 89.2505 11.8934C89.2505 12.0248 89.478 12.0577 90.605 12.0577C92.1004 12.0577 92.0571 12.0905 91.797 11.3129C91.3202 9.93298 90.0957 9.23205 88.0585 9.15539C87.43 9.13348 86.8232 9.13348 86.704 9.16634ZM72.2918 9.39633C71.815 9.56061 71.154 10.1082 70.9481 10.5025C70.7422 10.8968 70.558 10.7325 70.5038 10.0754L70.4496 9.48395H67.7405L67.708 14.0838C67.6972 16.6137 67.708 18.7931 67.7405 18.9355C67.7947 19.1765 67.8272 19.1765 69.1276 19.1545C69.8753 19.1436 70.4821 19.0779 70.5255 19.0122C70.5688 18.9574 70.6121 17.7965 70.6121 16.4385C70.6121 14.2919 70.6338 13.9085 70.818 13.4267C71.1973 12.43 72.01 11.8386 73.0286 11.8386C73.3104 11.8386 73.4296 11.7839 73.4621 11.6415C73.5379 11.3239 73.5488 9.84536 73.4837 9.5168C73.4187 9.25395 73.3645 9.21015 73.072 9.2211C72.8769 9.23205 72.5302 9.30871 72.2918 9.39633ZM38.9161 9.56061C38.8836 9.63727 38.8728 11.7948 38.8836 14.3576L38.9161 19.0122L40.2057 19.0669C40.9859 19.0998 41.5493 19.0779 41.636 19.0122C41.7552 18.9246 41.7877 17.9936 41.7877 14.27C41.7986 11.7291 41.7661 9.59347 41.7336 9.53871C41.6252 9.37443 38.9703 9.39633 38.9161 9.56061Z" fill="#828997"/>
</svg>
