<svg width="88" height="20" viewBox="0 0 88 20" fill="none" xmlns="http://www.w3.org/2000/svg">
<path d="M15.3957 19.3269L9.71878 19.2219C7.88065 19.1854 6.03802 19.2584 4.23602 18.8796C1.49465 18.3136 1.30045 15.5384 1.09722 13.2105C0.817208 9.93774 0.925598 6.60566 1.454 3.3603C1.75208 1.53907 2.92631 0.452721 4.74185 0.334044C10.8704 -0.0950188 17.0397 -0.0448094 23.1547 0.156028C23.8005 0.174286 24.4509 0.274705 25.0876 0.388818C28.231 0.945686 28.3077 4.09062 28.511 6.73803C28.7142 9.41282 28.6284 12.1013 28.24 14.7578C27.9284 16.9579 27.3322 18.802 24.8167 18.98C21.6643 19.2128 18.5842 19.3999 15.4228 19.3406C15.4228 19.3269 15.4048 19.3269 15.3957 19.3269ZM12.0582 13.7582C14.4338 12.3797 16.7642 11.0241 19.1262 9.65474C16.7461 8.27627 14.4202 6.92061 12.0582 5.55126V13.7582Z" fill="#828997"/>
<path d="M74.0458 16.8256C73.9374 17.2729 73.8425 17.6244 73.7477 17.9987H71.5257V0.67627H74.118V7.06663C74.2535 6.89317 74.3212 6.82014 74.38 6.74254C74.8225 6.12633 75.3961 5.72465 76.1368 5.56946C77.3155 5.33667 78.3227 5.86159 78.6794 7.00729C78.9098 7.71936 79.0588 8.48163 79.0769 9.22565C79.113 11.1382 79.0859 13.0462 79.0182 14.9587C78.9911 15.543 78.8149 16.1409 78.5936 16.6887C77.8665 18.4962 75.491 18.7701 74.3122 17.2045C74.2399 17.1086 74.1722 17.0036 74.0458 16.8256ZM74.1722 12.0602V15.228C74.1722 15.7438 74.4432 16.0588 74.9535 16.1774C75.4548 16.2961 75.8613 16.0999 76.0645 15.6297C76.1503 15.4334 76.2361 15.228 76.2407 15.0226C76.2903 13.0873 76.3355 11.1519 76.349 9.21196C76.349 8.85136 76.2632 8.47707 76.1548 8.1256C75.9516 7.49113 75.3916 7.30398 74.8406 7.67371C74.4251 7.95671 74.1722 8.35839 74.1722 8.89244V12.0602ZM67.1268 5.81594H69.8411V18.0078H67.723C67.6462 17.5468 67.5694 17.0721 67.4791 16.5152C67.3346 16.7298 67.2488 16.8667 67.1585 17.0036C66.4539 18.0307 65.4558 18.3821 64.2771 18.195C63.2699 18.0307 62.6648 17.2456 62.5293 15.9584C62.4886 15.5749 62.4706 15.1869 62.4706 14.8035C62.4615 11.9507 62.4706 9.08872 62.4706 6.23588V5.80681H65.2165V6.30435C65.2165 9.06133 65.2074 11.8137 65.2255 14.5707C65.2255 14.9633 65.2661 15.3695 65.3339 15.7621C65.4107 16.1638 65.6997 16.3098 66.0881 16.2824C66.7159 16.2322 67.1494 15.7621 67.1494 15.1322V6.35456C67.1268 6.17654 67.1268 6.01222 67.1268 5.81594ZM48.4385 5.80681H51.1664V6.32261C51.1664 9.0659 51.1573 11.8046 51.1754 14.5388C51.1754 14.9313 51.2115 15.3376 51.2928 15.721C51.3967 16.1729 51.6586 16.319 52.1057 16.2596C52.7245 16.1729 53.0993 15.7393 53.1038 15.1048V6.37282V5.82507H55.8181V18.0078H53.709C53.6322 17.5559 53.5555 17.0904 53.4561 16.5015C53.3206 16.7069 53.2438 16.8256 53.1671 16.9489C52.4625 17.9941 51.4735 18.3776 50.2676 18.1904C49.3011 18.0443 48.7095 17.3231 48.5289 16.1409C48.4792 15.7712 48.4431 15.406 48.4431 15.0363C48.434 12.0739 48.434 9.09785 48.434 6.13546L48.4385 5.80681ZM47.0385 12.3158C47.0295 12.7267 47.0024 13.1375 46.9798 13.5483C46.8759 14.7807 46.8262 16.5289 45.8417 17.4281C45.2139 17.9941 44.4191 18.1995 43.5971 18.2269C43.2313 18.2361 42.861 18.2361 42.4951 18.1858C40.7654 17.9211 39.9615 17.1497 39.6725 15.228C39.3428 13.0097 39.3157 10.7548 39.7086 8.53641C40.1151 6.24044 41.5151 5.42796 43.6919 5.57859C45.7243 5.72465 46.632 7.07119 46.8714 8.9883C47.0024 10.0884 47.0656 11.2021 47.0385 12.3158ZM44.2745 11.8959C44.2745 11.1154 44.2926 10.3303 44.2655 9.54974C44.2474 9.09785 44.1887 8.64139 44.0939 8.19407C43.9855 7.67828 43.6603 7.43179 43.2539 7.44092C42.8564 7.45005 42.5764 7.69653 42.4319 8.17581C42.3822 8.35383 42.328 8.53641 42.328 8.71443C42.328 9.93772 42.319 11.1656 42.31 12.3889C42.3009 13.53 42.1564 14.7259 42.5132 15.8169C42.6216 16.1501 42.9016 16.3326 43.2674 16.3326C43.6242 16.3326 43.859 16.1546 43.99 15.8351C44.0939 15.5886 44.1842 15.3193 44.1842 15.0546C44.2158 14.0047 44.2745 12.9503 44.2745 11.8959ZM35.6891 9.59995C35.9285 8.41773 36.1543 7.2629 36.4027 6.10351C36.7143 4.62916 37.0621 3.15482 37.3692 1.6759C37.4459 1.31531 37.5905 1.22858 37.9292 1.23771C38.6563 1.2651 39.397 1.24684 40.1738 1.24684C39.9209 2.18713 39.6725 3.08178 39.4286 3.96274C38.6563 6.72885 37.884 9.50409 37.1208 12.2793C37.0621 12.4939 37.035 12.7267 37.035 12.9549C37.0259 14.4703 37.035 15.9812 37.035 17.4966V17.9896H34.3839C34.3749 17.8526 34.3568 17.7157 34.3568 17.5788C34.3568 16.7206 34.2891 15.8579 34.3659 15.0089C34.5601 12.9686 33.9187 11.0926 33.3994 9.1937C32.7129 6.68321 32.0174 4.16358 31.3309 1.65308C31.2948 1.5344 31.2812 1.4066 31.2451 1.26053H33.9504C34.5194 4.03121 35.093 6.80188 35.6891 9.59995ZM87.5584 12.7814H82.988C83.0376 13.708 83.0557 14.589 83.1505 15.4608C83.2183 16.0679 83.548 16.3281 84.0673 16.3326C84.6093 16.3418 84.9254 16.0679 85.0519 15.4654C85.0925 15.2691 85.1196 15.0728 85.1377 14.872C85.1558 14.694 85.1648 14.5023 85.1783 14.2466C85.9506 14.2877 86.7048 14.3334 87.45 14.3653C87.8836 15.6662 87.1023 17.3368 85.788 17.8526C84.7538 18.2634 83.6925 18.2634 82.6357 17.9485C81.8544 17.7157 81.2718 17.2136 81.0098 16.4422C80.766 15.721 80.5356 14.9678 80.4859 14.2147C80.3505 12.3569 80.3008 10.4809 80.5808 8.61857C80.6305 8.30818 80.7163 8.01149 80.8111 7.71023C81.1905 6.46867 82.017 5.70639 83.2951 5.57859C83.9906 5.51012 84.7087 5.53751 85.3951 5.65618C86.5061 5.85246 87.0978 6.66038 87.3552 7.71936C87.4726 8.21689 87.5584 8.72812 87.5765 9.23478C87.581 10.3987 87.5584 11.5536 87.5584 12.7814ZM84.9616 11.1793C84.9616 10.2618 84.9706 9.39911 84.9525 8.53184C84.9525 8.32644 84.8758 8.11191 84.799 7.91563C84.6454 7.53221 84.3248 7.42723 83.9409 7.42723C83.557 7.42723 83.3131 7.6235 83.2183 7.97497C82.9292 9.02938 83.0241 10.1066 83.0331 11.1884C83.7241 11.1793 84.3519 11.1793 84.9616 11.1793Z" fill="#828997"/>
<path d="M57.9132 3.48356H55.2261V1.28345H63.2469V3.46987H60.5778V17.9897H57.9178L57.9132 3.48356Z" fill="#828997"/>
</svg>
